<svg width="34" height="34" viewBox="0 0 34 34" fill="none" xmlns="http://www.w3.org/2000/svg">
<path fill-rule="evenodd" clip-rule="evenodd" d="M17 34C26.3888 34 34 26.3888 34 17C34 7.61116 26.3888 0 17 0C7.61116 0 0 7.61116 0 17C0 26.3888 7.61116 34 17 34ZM23.6679 13.1073C23.6679 10.1702 21.5973 8.07292 18.0563 8.07292H12V26.6702H18.5022C21.9107 26.6702 24.2451 24.5461 24.2451 21.6091C24.2451 19.5359 23.0129 17.6502 20.8888 17.1252C22.5147 16.5158 23.6679 15.1002 23.6679 13.1073ZM21.0723 13.2332C21.0723 14.9635 19.8402 16.1957 17.7683 16.1957H14.5688V10.3216H17.6638C19.7879 10.3216 21.0723 11.476 21.0723 13.2332ZM21.6174 21.4457C21.6174 23.2537 20.2071 24.4082 18.1353 24.4082H14.5688V18.4028H18.2357C20.4897 18.4028 21.6174 19.6618 21.6174 21.4457Z" fill="black"/>
<path fill-rule="evenodd" clip-rule="evenodd" d="M11.25 7.32292H18.0563C19.9744 7.32292 21.5734 7.893 22.7002 8.93906C23.8312 9.98898 24.4179 11.4558 24.4179 13.1073C24.4179 14.7987 23.6955 16.1476 22.5746 17.0316C24.1362 18.0125 24.9951 19.7685 24.9951 21.6091C24.9951 23.2878 24.3229 24.7583 23.1503 25.8014C21.9833 26.8396 20.3615 27.4202 18.5022 27.4202H11.25V7.32292ZM21.8746 17.4954C21.5718 17.3379 21.2427 17.2126 20.8888 17.1252C21.2245 16.9994 21.54 16.8392 21.8294 16.6467C22.9417 15.9067 23.6679 14.6887 23.6679 13.1073C23.6679 10.1702 21.5973 8.07292 18.0563 8.07292H12V26.6702H18.5022C21.9107 26.6702 24.2451 24.5461 24.2451 21.6091C24.2451 19.8813 23.3893 18.2837 21.8746 17.4954ZM17 33.25C25.9746 33.25 33.25 25.9746 33.25 17C33.25 8.02537 25.9746 0.75 17 0.75C8.02537 0.75 0.75 8.02537 0.75 17C0.75 25.9746 8.02537 33.25 17 33.25ZM19.6881 14.8127C20.0849 14.4457 20.3223 13.9131 20.3223 13.2332C20.3223 12.5492 20.0791 12.0367 19.6735 11.6853C19.2565 11.324 18.5951 11.0716 17.6638 11.0716H15.3188V15.4457H17.7683C18.6561 15.4457 19.2868 15.1837 19.6881 14.8127ZM14.5688 16.1957V10.3216H17.6638C19.7879 10.3216 21.0723 11.476 21.0723 13.2332C21.0723 14.9635 19.8402 16.1957 17.7683 16.1957H14.5688ZM20.1704 23.0311C20.6047 22.6656 20.8674 22.1389 20.8674 21.4457C20.8674 20.7138 20.6398 20.1658 20.2541 19.798C19.8655 19.4272 19.2254 19.1528 18.2357 19.1528H15.3188V23.6582H18.1353C19.0371 23.6582 19.7234 23.4072 20.1704 23.0311ZM14.5688 24.4082V18.4028H18.2357C20.4897 18.4028 21.6174 19.6618 21.6174 21.4457C21.6174 23.2537 20.2071 24.4082 18.1353 24.4082H14.5688ZM34 17C34 26.3888 26.3888 34 17 34C7.61116 34 0 26.3888 0 17C0 7.61116 7.61116 0 17 0C26.3888 0 34 7.61116 34 17Z" fill="black"/>
</svg>
