<svg width="32" height="32" viewBox="0 0 32 32" fill="none" xmlns="http://www.w3.org/2000/svg">
<path d="M16.7731 6.47778C20.5503 6.47778 22.7589 8.71493 22.7589 11.8478C22.7589 13.9735 21.5289 15.4835 19.7946 16.1335C22.0603 16.6935 23.3746 18.7049 23.3746 20.9164C23.3746 24.0492 20.8846 26.3149 17.2489 26.3149H10.3131V6.47778H16.7731ZM16.466 15.1421C18.676 15.1421 19.9903 13.8278 19.9903 11.9821C19.9903 10.1078 18.6203 8.87635 16.3546 8.87635H13.0531V15.1421H16.466ZM16.8574 23.9021C19.0674 23.9021 20.5717 22.6706 20.5717 20.7421C20.5717 18.8392 19.3689 17.4964 16.9646 17.4964H13.0531V23.9021H16.8574Z" fill="white"/>
<path opacity="0.5" d="M30 32H2C1.46957 32 0.960859 31.7893 0.585786 31.4142C0.210714 31.0391 0 30.5304 0 30L0 2C0 1.46957 0.210714 0.960859 0.585786 0.585786C0.960859 0.210714 1.46957 0 2 0L30 0C30.5304 0 31.0391 0.210714 31.4142 0.585786C31.7893 0.960859 32 1.46957 32 2V29.7937H31.2857V2C31.2857 1.65901 31.1503 1.33198 30.9091 1.09086C30.668 0.849745 30.341 0.714286 30 0.714286H2C1.65901 0.714286 1.33198 0.849745 1.09086 1.09086C0.849745 1.33198 0.714286 1.65901 0.714286 2V30C0.714286 30.341 0.849745 30.668 1.09086 30.9091C1.33198 31.1503 1.65901 31.2857 2 31.2857H30C30.341 31.2857 30.668 31.1503 30.9091 30.9091C31.1503 30.668 31.2857 30.341 31.2857 30V29.3029H32V30C32 30.5304 31.7893 31.0391 31.4142 31.4142C31.0391 31.7893 30.5304 32 30 32Z" fill="white"/>
</svg>
