<svg width="32" height="32" viewBox="0 0 32 32" fill="none" xmlns="http://www.w3.org/2000/svg">
<path d="M2 32H30C30.5304 32 31.0391 31.7893 31.4142 31.4142C31.7893 31.0391 32 30.5304 32 30V29.7937V29.3029V2C32 1.46957 31.7893 0.960859 31.4142 0.585786C31.0391 0.210714 30.5304 0 30 0H2C1.46957 0 0.960859 0.210714 0.585786 0.585786C0.210714 0.960859 0 1.46957 0 2V30C0 30.5304 0.210714 31.0391 0.585786 31.4142C0.960859 31.7893 1.46957 32 2 32Z" fill="black"/>
<path d="M16.7731 6.47778C20.5503 6.47778 22.7589 8.71493 22.7589 11.8478C22.7589 13.9735 21.5289 15.4835 19.7946 16.1335C22.0603 16.6935 23.3746 18.7049 23.3746 20.9164C23.3746 24.0492 20.8846 26.3149 17.2489 26.3149H10.3131V6.47778H16.7731ZM16.466 15.1421C18.676 15.1421 19.9903 13.8278 19.9903 11.9821C19.9903 10.1078 18.6203 8.87635 16.3546 8.87635H13.0531V15.1421H16.466ZM16.8574 23.9021C19.0674 23.9021 20.5717 22.6706 20.5717 20.7421C20.5717 18.8392 19.3689 17.4964 16.9646 17.4964H13.0531V23.9021H16.8574Z" fill="white"/>
</svg>
